<?xml version="1.0" standalone="no"?>
<!DOCTYPE svg PUBLIC "-//W3C//DTD SVG 20010904//EN"
 "http://www.w3.org/TR/2001/REC-SVG-20010904/DTD/svg10.dtd">
<svg version="1.0" xmlns="http://www.w3.org/2000/svg"
 width="960.000000pt" height="960.000000pt" viewBox="0 0 960.000000 960.000000"
 preserveAspectRatio="xMidYMid meet">

<g transform="translate(0.000000,960.000000) scale(0.100000,-0.100000)"
fill="#70E000" stroke="none">
<path d="M5245 7366 c-16 -7 -41 -28 -54 -47 -38 -51 -38 -113 -2 -254 77
-306 103 -473 126 -800 14 -205 7 -515 -15 -650 -5 -33 -12 -89 -16 -125 -3
-36 -12 -92 -20 -125 -19 -83 -19 -85 20 -85 53 0 154 43 205 88 106 91 139
232 127 552 -11 305 -45 582 -100 806 -13 53 -24 95 -70 261 -16 57 -60 182
-80 228 -7 17 -26 60 -41 98 -15 37 -33 67 -39 67 -6 -1 -24 -7 -41 -14z"/>
<path d="M5691 7311 c-15 -10 -14 -13 24 -106 30 -71 45 -117 45 -134 0 -10 8
-33 17 -52 9 -18 22 -56 29 -84 7 -27 26 -104 43 -169 29 -112 54 -247 80
-426 28 -193 33 -313 29 -611 l-4 -309 25 0 c87 0 188 61 233 139 29 52 32 64
36 171 5 164 -20 411 -64 620 -61 293 -77 353 -160 605 -45 137 -104 265 -143
309 -38 44 -151 71 -190 47z"/>
<path d="M6327 7133 c-3 -5 13 -57 34 -118 89 -248 115 -341 163 -590 31 -160
46 -319 62 -650 3 -60 7 -116 9 -122 6 -19 92 28 139 75 23 22 49 65 64 103
23 56 26 78 25 175 0 62 -5 134 -11 160 -6 27 -18 90 -27 139 -22 122 -45 226
-56 247 -5 10 -9 24 -9 32 0 19 -21 87 -85 277 -54 159 -128 247 -226 268 -59
13 -76 14 -82 4z"/>
<path d="M4771 7078 c-51 -14 -77 -35 -106 -85 -26 -43 -26 -48 -22 -166 3
-67 10 -169 16 -227 12 -126 12 -470 0 -595 -22 -238 -39 -347 -80 -517 -5
-21 -13 -55 -18 -75 -55 -231 -189 -598 -279 -763 -16 -30 -45 -84 -64 -120
-56 -104 -72 -130 -84 -130 -12 0 -31 19 -80 80 -138 174 -428 458 -585 573
-13 10 -60 45 -104 78 -44 33 -87 63 -95 67 -13 6 -117 73 -190 122 -146 99
-256 99 -362 2 -16 -14 -28 -31 -28 -36 0 -6 30 -31 67 -56 38 -25 73 -49 79
-55 11 -10 21 -18 117 -88 127 -93 313 -266 464 -433 105 -116 131 -147 170
-202 21 -29 64 -88 96 -130 50 -66 82 -114 150 -227 7 -11 20 -32 30 -47 9
-14 17 -33 17 -41 0 -8 7 -20 15 -27 8 -7 24 -31 34 -54 28 -63 72 -100 146
-125 85 -27 102 -27 178 8 72 33 99 64 186 218 65 116 195 383 217 449 9 27
25 69 36 94 69 161 139 405 194 675 14 72 30 157 34 190 5 33 17 112 26 175
12 86 17 192 18 425 1 307 -5 392 -40 615 -14 87 -24 133 -70 337 -20 87 -35
104 -83 91z"/>
<path d="M2281 3351 c-7 -5 -11 -17 -9 -27 3 -17 16 -19 152 -22 90 -1 155 -7
163 -14 10 -8 13 -87 13 -387 0 -280 3 -380 12 -389 18 -18 46 -14 58 7 6 13
10 153 10 388 0 274 3 372 12 381 8 8 58 12 159 12 142 0 148 1 154 21 5 14 2
25 -6 30 -18 11 -700 11 -718 0z"/>
<path d="M3453 3348 c-11 -15 -191 -381 -253 -513 -23 -49 -45 -97 -50 -105
-31 -55 -100 -204 -100 -217 0 -10 9 -13 33 -11 30 3 35 9 83 108 28 58 57
111 63 118 9 9 73 12 273 10 219 -3 262 -5 269 -18 5 -8 30 -58 55 -112 45
-95 65 -115 100 -101 21 8 17 39 -11 83 -14 22 -25 42 -25 44 0 11 -336 693
-351 711 -12 16 -75 17 -86 3z m77 -125 c13 -27 54 -112 91 -190 38 -78 69
-146 69 -151 0 -5 7 -15 15 -22 20 -16 19 -56 -1 -64 -9 -3 -103 -6 -209 -6
-106 0 -200 3 -209 6 -23 9 -20 29 18 103 19 36 62 125 96 196 67 141 86 175
99 175 5 0 19 -21 31 -47z"/>
<path d="M4146 3352 c-10 -16 -8 -834 2 -844 6 -6 20 -8 33 -6 18 2 25 12 31
42 5 21 7 212 6 425 l-3 386 -32 3 c-17 2 -34 -1 -37 -6z"/>
<path d="M4675 3352 c-87 -20 -178 -101 -194 -172 -15 -69 0 -125 45 -171 43
-45 93 -65 262 -110 212 -56 262 -90 262 -178 0 -77 -47 -124 -153 -155 -92
-27 -273 0 -365 55 -41 23 -58 24 -66 3 -9 -23 15 -47 72 -71 92 -40 134 -48
267 -48 133 0 137 1 222 49 105 59 136 206 60 284 -32 34 -161 102 -192 102
-22 0 -73 13 -185 47 -126 39 -172 92 -155 180 9 48 70 108 128 125 70 20 212
14 282 -12 88 -32 101 -34 109 -15 9 25 0 33 -62 62 -50 22 -73 26 -182 28
-69 2 -138 1 -155 -3z"/>
<path d="M5500 3351 c-77 -24 -144 -73 -176 -131 -22 -39 -25 -54 -21 -107 4
-53 9 -66 36 -92 53 -52 101 -76 206 -104 277 -75 281 -76 310 -121 44 -67 22
-160 -49 -201 -30 -18 -67 -26 -141 -34 -93 -9 -105 -9 -189 15 -49 14 -103
34 -118 45 -36 26 -63 21 -63 -10 0 -19 11 -30 49 -49 167 -83 403 -83 527 1
46 31 78 98 78 165 2 122 -70 173 -334 237 -178 43 -235 86 -235 174 0 64 33
107 108 143 35 17 64 21 140 21 93 1 140 -8 209 -39 41 -19 59 -18 68 3 17 47
-123 93 -277 92 -56 0 -114 -4 -128 -8z"/>
<path d="M6207 3354 c-4 -4 -7 -193 -7 -419 0 -439 0 -442 47 -433 17 3 18 27
18 428 l0 425 -25 3 c-14 2 -29 0 -33 -4z"/>
<path d="M6730 3351 c-50 -13 -120 -54 -149 -86 -64 -73 -62 -194 3 -258 51
-50 118 -75 319 -122 97 -22 151 -50 181 -94 23 -32 26 -45 20 -82 -12 -80
-39 -109 -130 -138 -54 -17 -74 -19 -162 -10 -110 10 -167 27 -226 66 -38 24
-40 25 -53 7 -19 -25 -17 -30 20 -57 66 -48 135 -68 258 -74 212 -10 325 41
367 166 16 49 17 62 6 99 -14 47 -54 100 -87 117 -44 22 -145 54 -252 80 -128
31 -180 57 -213 105 -20 29 -23 43 -18 84 9 83 79 137 196 150 63 8 211 -15
264 -40 40 -19 66 -13 66 16 0 23 -42 44 -130 66 -56 13 -234 17 -280 5z"/>
</g>
</svg>
